<?xml version="1.0" standalone="no"?>
<!DOCTYPE svg PUBLIC "-//W3C//DTD SVG 20010904//EN"
 "http://www.w3.org/TR/2001/REC-SVG-20010904/DTD/svg10.dtd">
<svg version="1.0" xmlns="http://www.w3.org/2000/svg"
 width="500.000000pt" height="500.000000pt" viewBox="0 0 500.000000 500.000000"
 preserveAspectRatio="xMidYMid meet">
<metadata>
Created by potrace 1.11, written by Peter Selinger 2001-2013
</metadata>
<g transform="translate(0.000000,500.000000) scale(0.100000,-0.100000)"
fill="#000000" stroke="none">
<path d="M0 2500 l0 -2500 2500 0 2500 0 0 2500 0 2500 -2500 0 -2500 0 0
-2500z m2497 1115 c18 -4 39 -15 48 -25 11 -13 33 -170 90 -661 41 -354 76
-653 78 -664 1 -11 79 286 172 660 l170 680 40 14 c28 10 88 14 200 15 170 0
240 -11 249 -42 3 -9 77 -313 165 -676 88 -362 163 -661 166 -664 3 -3 5 2 5
10 0 16 166 1241 175 1296 5 26 14 37 40 47 99 42 608 46 648 6 11 -11 -368
-2108 -386 -2130 -27 -32 -147 -56 -349 -70 -220 -16 -439 10 -486 57 -11 11
-53 166 -121 442 -57 234 -107 428 -110 432 -4 5 -58 -182 -120 -415 -62 -232
-119 -431 -126 -443 -15 -23 -87 -49 -180 -64 -33 -5 -144 -10 -246 -10 -247
0 -404 27 -422 73 -2 7 -78 486 -168 1065 -126 818 -160 1055 -151 1064 24 24
518 26 619 3z m-788 -23 c65 -128 45 -492 -29 -529 -17 -9 -82 -13 -207 -13
l-183 0 0 -799 c0 -627 -3 -801 -12 -809 -34 -27 -108 -37 -298 -37 -190 0
-264 10 -297 37 -10 8 -13 182 -13 809 l0 799 -187 0 c-130 0 -196 4 -213 13
-87 43 -92 503 -6 559 6 4 329 8 718 8 l708 0 19 -38z"/>
</g>
</svg>
